<svg width="343" height="73" viewBox="0 0 343 73" fill="none" xmlns="http://www.w3.org/2000/svg">
<path d="M336.248 27.354C336.178 27.2756 336.122 27.1972 336.039 27.1231L332.476 23.6864C335.429 23.0156 338.609 20.5415 338.609 18.0021C338.609 15.0446 334.506 13.9948 330.999 13.9948C327.336 13.9948 326.914 16.5037 326.866 18.2765L317.675 9.41691C315.806 7.57006 312.269 6.11523 309.621 6.11523H291.719H291.715H273.812C271.168 6.11523 267.627 7.57006 265.759 9.41691L256.572 18.2765C256.524 16.5037 256.097 13.9948 252.439 13.9948C248.932 13.9948 244.829 15.0446 244.829 18.0021C244.829 20.5415 248.013 23.0156 250.966 23.6864L247.403 27.1231C247.321 27.2015 247.268 27.2756 247.194 27.354C243.383 30.6121 240.896 36.6535 240.896 41.0354V54.0592C240.896 57.2215 242.142 60.0919 244.158 62.2306V67.279C244.158 70.2322 246.632 72.6409 249.673 72.6409H256.341C259.382 72.6409 261.851 70.2365 261.851 67.279V65.9853H291.719H291.723H321.586V67.279C321.586 70.2365 324.056 72.6409 327.101 72.6409H333.765C336.81 72.6409 339.28 70.2322 339.28 67.279V62.2306C341.292 60.0919 342.542 57.2215 342.542 54.0592V41.0354C342.546 36.6535 340.059 30.6121 336.248 27.354ZM269.143 13.3545C270.437 12.2786 272.693 11.4598 273.821 11.4598H291.723H291.728H309.63C310.758 11.4598 313.014 12.2786 314.308 13.3545L326.36 25.0323H291.728H291.723H257.095L269.143 13.3545ZM245.038 39.0666C245.038 35.8608 247.547 33.256 250.648 33.256C253.745 33.256 263.868 39.1973 263.868 42.4031C263.868 45.609 253.745 44.8685 250.648 44.8685C247.547 44.8685 245.038 42.2725 245.038 39.0666ZM261.86 60.2792H260.793H259.726L253.388 60.2879C251.628 59.7435 250.387 59.1032 249.512 58.415C249.067 58.0665 248.727 57.7093 248.462 57.3478C248.196 56.9863 248 56.6291 247.874 56.2719C247.085 54.0461 248.714 51.9946 248.714 51.9946H259.53L266.739 60.2705L261.86 60.2792ZM307.278 60.2836H291.728H291.723H276.173C272.932 60.2836 270.297 57.6527 270.297 54.412H291.723H291.728H313.154C313.154 57.6527 310.518 60.2836 307.278 60.2836ZM308.641 50.4047H291.728H291.723H274.81C271.282 50.4047 268.42 46.0576 268.42 40.6957H291.723H291.728H315.031C315.031 46.0576 312.169 50.4047 308.641 50.4047ZM335.586 56.2763C335.455 56.6334 335.264 56.9906 334.993 57.3521C334.732 57.7093 334.388 58.0709 333.944 58.4193C333.068 59.1075 331.827 59.7478 330.067 60.2923L323.729 60.2792H322.662H321.595H316.717L323.93 52.0033H334.745C334.741 52.0033 336.37 54.0461 335.586 56.2763ZM332.803 44.8685C329.706 44.8685 319.587 45.609 319.587 42.4031C319.587 39.1973 329.71 33.256 332.803 33.256C335.904 33.256 338.413 35.8608 338.413 39.0666C338.413 42.2725 335.904 44.8685 332.803 44.8685Z" fill="white"/>
<path d="M209.926 0H207.404V72.6499H209.926V0Z" fill="white"/>
<path d="M100.287 24.0961V13.9951C100.392 13.9689 100.435 14.0386 100.509 14.0778C100.679 14.1649 101.642 14.7922 101.642 14.9098V27.3498L90.931 15.8942V27.1103C90.931 27.119 90.8352 27.2105 90.8309 27.2105H89.5764V12.8103C89.5764 12.7885 89.4936 12.7362 89.5067 12.6753L89.6461 12.6709L100.287 24.0961Z" fill="white"/>
<path d="M132.076 12.9102V14.1995H123.534V18.1327H130.786V19.422H123.534V25.9296H132.276V27.1143C132.276 27.123 132.18 27.2145 132.176 27.2145H122.214V12.9102H132.076Z" fill="white"/>
<path d="M146.58 12.9102V14.1995H141.632V27.2145H140.278V14.2996C140.278 14.2909 140.182 14.1995 140.177 14.1995H135.264V12.9102H146.58Z" fill="white"/>
<path d="M109.369 13.9951V25.9256H118.111V27.1103C118.111 27.119 118.015 27.2105 118.011 27.2105H108.115C108.106 27.2105 108.014 27.1147 108.014 27.1103V14.8445C108.454 14.5614 108.881 14.1781 109.369 13.9951Z" fill="white"/>
<path d="M66.9394 19.3528V27.2149H65.6196C65.6109 27.2149 65.5195 27.1191 65.5195 27.1148V19.3528H62.9452V18.1332H65.5195V12.9106L72.8764 12.9062C75.1196 13.0805 77.2408 13.9734 76.9751 16.6043C76.7791 18.5383 74.9149 19.2439 73.2161 19.3528C71.1732 19.4835 68.9954 19.2526 66.9394 19.3528ZM66.9394 18.1288C68.8516 18.0548 70.8335 18.2246 72.737 18.1332C74.4836 18.0461 75.8905 17.7542 75.529 15.6068C75.3374 14.4569 73.8912 14.2565 72.9373 14.1999C70.9816 14.0823 68.9039 14.2914 66.9351 14.2043V18.1288H66.9394Z" fill="white"/>
<path d="M83.1385 12.9102H81.7839V27.2101H83.1385V12.9102Z" fill="white"/>
<path d="M53.5846 28.3216V25.3554C53.5846 25.2857 54.5516 24.9938 54.6475 24.4624L54.5908 15.8641L43.4313 7.43138L42.7954 7.74499L32.163 15.8598L32.102 24.6759C32.2544 24.837 33.1735 25.3859 33.1735 25.5296V28.3173L30.3902 26.2962L29.8762 25.6211L29.8457 15.1977L29.9415 14.7012C34.2058 11.3037 38.6052 7.97585 43.0219 4.76129C43.6753 4.5827 43.8277 4.82227 44.3156 5.13589C47.7 7.30941 51.9077 10.7592 55.1135 13.3204C55.523 13.6471 56.7208 14.4747 56.8515 14.9015L56.8776 25.6211C56.821 25.8737 56.6555 26.0087 56.4856 26.1786C55.7538 26.9147 54.421 27.6378 53.5846 28.3216Z" fill="white"/>
<path d="M42.8738 18.7392C43.2528 18.6782 43.6753 18.6477 44.015 18.8481C46.0274 20.5599 49.3247 21.9276 51.2064 23.6438C51.4634 23.879 51.5331 23.9923 51.5723 24.3451C51.6942 25.4035 51.7117 28.6573 51.5766 29.694C51.5592 29.8246 51.5592 29.951 51.459 30.0511L44.0368 35.0908C43.3268 35.4436 43.2223 35.3783 42.5602 35.0167C40.8789 34.0977 37.2418 31.7194 35.7957 30.5085C35.2861 30.0816 35.1336 29.9074 35.0683 29.2192C34.9637 28.1259 34.9507 25.6605 35.0726 24.589C35.1423 23.9836 35.3122 23.8398 35.7478 23.4826C37.8255 21.7621 40.709 20.4162 42.8738 18.7392ZM49.4075 29.0101L49.3726 24.9985L43.4183 20.9868L37.3246 24.9636L37.3855 29.0319L43.2266 32.9303L43.5751 32.8606L49.4075 29.0101Z" fill="white"/>
<path d="M44.8034 29.9812H41.8371C41.8284 29.1188 42.3032 27.8861 42.203 27.0672C42.1507 26.636 41.7195 26.4182 41.6281 25.9783C41.0792 23.3256 44.8775 23.0686 45.1388 25.3249C45.2477 26.2527 44.4767 26.5794 44.4375 27.0716C44.3678 27.8861 44.8862 29.1101 44.8034 29.9812Z" fill="white"/>
<path d="M0 37.4082V40.2699H7.6618V61.5566H10.9373V40.2699H18.5991V37.4082H0Z" fill="white"/>
<path d="M31.7797 45.8929C30.5383 44.6733 28.8918 44.0635 26.8446 44.0635H23.948C21.9008 44.0635 20.2543 44.6733 19.013 45.8929C17.7716 47.1125 17.1487 48.7242 17.1487 50.7234V55.2099C17.1487 57.1874 17.7628 58.786 18.9955 60.0056C20.2282 61.2252 21.8529 61.835 23.8783 61.835H26.8098C28.857 61.835 30.5078 61.2252 31.7623 60.0056C33.0168 58.786 33.644 57.1874 33.644 55.2099V50.7234C33.6396 48.7242 33.0211 47.1125 31.7797 45.8929ZM30.4338 55.0705C30.4338 56.2683 30.0984 57.2223 29.432 57.9366C28.7655 58.6509 27.8813 59.0038 26.7749 59.0038H23.9132C22.833 59.0038 21.9705 58.6466 21.3259 57.9366C20.6812 57.2223 20.3589 56.2683 20.3589 55.0705V50.828C20.3589 49.6345 20.6856 48.6762 21.3433 47.9619C22.001 47.2475 22.8678 46.8947 23.948 46.8947H26.8446C27.9249 46.8947 28.796 47.2519 29.4494 47.9619C30.1071 48.6762 30.4338 49.6302 30.4338 50.828V55.0705Z" fill="white"/>
<path d="M52.9488 45.8581C51.764 44.6646 50.2046 44.0635 48.275 44.0635H45.8924C45.1084 44.0635 44.333 44.2856 43.5621 44.7386C42.7911 45.1873 42.1639 45.7797 41.6804 46.5158V44.3422H38.6096V68.4253H41.8198V59.8357C42.2815 60.4325 42.8826 60.9159 43.6318 61.2862C44.381 61.6521 45.0997 61.8394 45.7879 61.8394H48.201C49.4903 61.8394 50.6271 61.5432 51.6159 60.9421C52.6046 60.3453 53.3713 59.5047 53.9114 58.4245C54.4515 57.3442 54.7216 56.1028 54.7216 54.6959V50.5884C54.7259 48.6327 54.1335 47.0559 52.9488 45.8581ZM51.4809 54.587C51.4809 55.9199 51.1585 56.9914 50.5139 57.7972C49.8692 58.603 49.0068 59.0038 47.9266 59.0038H45.7182C44.7033 59.0038 43.8365 58.6422 43.1134 57.9192C42.3904 57.1961 41.9591 56.2596 41.8198 55.1054V50.5144C42.1203 49.4341 42.6299 48.5586 43.3574 47.8922C44.0804 47.2258 44.8688 46.8904 45.7225 46.8904H48.0354C49.0721 46.8904 49.9041 47.2432 50.5357 47.9445C51.1672 48.6457 51.4852 49.5605 51.4852 50.6886V54.587H51.4809Z" fill="white"/>
<path d="M92.7474 45.6011C91.6454 44.5775 90.1818 44.0635 88.3655 44.0635H85.5342C83.7179 44.0635 82.25 44.5252 81.1349 45.4443C80.0198 46.3633 79.4623 47.5742 79.4623 49.0683H82.6377C82.6377 48.4018 82.9033 47.8617 83.4304 47.4479C83.9574 47.0341 84.6587 46.825 85.5342 46.825H88.3655C89.2149 46.825 89.9074 47.082 90.4345 47.6004C90.9659 48.1187 91.2272 48.8026 91.2272 49.6519V52.1696C90.674 51.8037 90.0076 51.5118 89.2279 51.3071C88.4439 51.1024 87.7078 50.9979 87.0196 50.9979H84.846C83.0994 50.9979 81.6837 51.4422 80.6035 52.3264C79.5233 53.2106 78.9832 54.3779 78.9832 55.8284V56.9696C78.9832 58.4419 79.5015 59.6223 80.5338 60.5065C81.5705 61.3907 82.9469 61.835 84.6718 61.835H86.7408C87.6163 61.835 88.4787 61.5998 89.3281 61.1294C90.1775 60.659 90.87 60.0317 91.3971 59.2477V61.5606H94.3982V49.6563C94.4069 47.975 93.8538 46.6247 92.7474 45.6011ZM91.2316 55.933C90.931 56.9217 90.3909 57.7101 89.6112 58.2981C88.8272 58.8862 87.9343 59.178 86.9194 59.178H84.8852C84.0576 59.178 83.3955 58.9776 82.9033 58.5725C82.4068 58.1718 82.1629 57.623 82.1629 56.9348V55.8981C82.1629 55.2099 82.4155 54.6567 82.9208 54.2429C83.426 53.8291 84.0794 53.62 84.8852 53.62H87.0936C87.8994 53.62 88.6791 53.7333 89.4414 53.9641C90.1993 54.195 90.8004 54.5043 91.2359 54.8963V55.933H91.2316Z" fill="white"/>
<path d="M107.104 44.2725C106.137 44.2725 105.214 44.512 104.325 44.9955C103.441 45.479 102.766 46.0975 102.308 46.8598V44.3422H99.2375V61.5605H102.448V51.8297C102.448 50.4272 102.875 49.2947 103.724 48.4322C104.573 47.5698 105.701 47.1386 107.104 47.1386H108.899V44.2768H107.104V44.2725Z" fill="white"/>
<path d="M120.045 51.7256L127.498 44.3426H123.669L115.698 52.244V37.4082H112.488V61.5609H115.698V56.0422L117.941 53.8338L124.222 61.5609H127.946L120.045 51.7256Z" fill="white"/>
<path d="M133.931 38.3232C133.53 37.9225 132.995 37.7178 132.328 37.7178C131.662 37.7178 131.122 37.9181 130.708 38.3232C130.294 38.724 130.085 39.2467 130.085 39.8913C130.085 40.536 130.294 41.0587 130.708 41.4594C131.122 41.8601 131.662 42.0648 132.328 42.0648C132.995 42.0648 133.53 41.8645 133.931 41.4594C134.332 41.0587 134.537 40.536 134.537 39.8913C134.532 39.2467 134.332 38.724 133.931 38.3232ZM130.704 44.3429V61.5613H133.914V44.3429H130.704Z" fill="white"/>
<path d="M153.807 45.7236C152.783 44.6215 151.441 44.0684 149.786 44.0684H147.508C146.681 44.0684 145.849 44.3166 145.008 44.8088C144.167 45.3054 143.496 45.9413 142.991 46.7254V44.3428H139.92V61.5611H143.131V51.0027C143.361 49.7831 143.88 48.7944 144.681 48.0365C145.487 47.2786 146.384 46.8996 147.373 46.8996H149.512C150.296 46.8996 150.927 47.1914 151.411 47.7795C151.894 48.3675 152.134 49.1298 152.134 50.075V61.5655H155.344V50.075C155.34 48.276 154.83 46.8256 153.807 45.7236Z" fill="white"/>
<path d="M173.39 44.3422V46.2065C172.955 45.5836 172.345 45.074 171.561 44.6689C170.777 44.2682 170.019 44.0635 169.283 44.0635H167.005C165.693 44.0635 164.531 44.351 163.52 44.9259C162.509 45.5009 161.721 46.3198 161.155 47.3739C160.593 48.4323 160.31 49.6389 160.31 50.9979V54.8614C160.31 56.1725 160.575 57.3355 161.103 58.346C161.63 59.3566 162.379 60.1406 163.346 60.6938C164.313 61.247 165.415 61.5214 166.656 61.5214H169.139C169.827 61.5214 170.555 61.3254 171.312 60.9334C172.07 60.5414 172.706 60.0361 173.212 59.4132V61.7261C173.212 62.9893 172.92 63.9868 172.332 64.7098C171.744 65.4329 170.933 65.7988 169.901 65.7988H166.97C166.255 65.7988 165.659 65.6028 165.175 65.2107C164.692 64.8187 164.417 64.3135 164.348 63.6906H161.137C161.251 65.141 161.843 66.3127 162.915 67.21C163.982 68.1073 165.336 68.556 166.97 68.556H169.901C171.927 68.556 173.516 67.9462 174.679 66.7265C175.838 65.5069 176.422 63.8387 176.422 61.7218V44.3335H173.39V44.3422ZM173.22 54.1732C173.129 55.5061 172.706 56.5994 171.961 57.4488C171.212 58.2981 170.311 58.725 169.252 58.725H166.804C165.859 58.725 165.079 58.3591 164.456 57.6186C163.834 56.8825 163.524 55.9286 163.524 54.7569V51.098C163.524 49.8349 163.864 48.8156 164.544 48.0447C165.223 47.2737 166.103 46.8904 167.183 46.8904H169.566C170.533 46.8904 171.36 47.2301 172.049 47.9096C172.737 48.5891 173.129 49.469 173.22 50.5492V54.1732Z" fill="white"/>
<path d="M75.3243 50.5889V54.6964C75.3243 56.0293 75.0804 57.2184 74.5882 58.2638C74.5621 58.3161 74.5359 58.3727 74.5098 58.425C73.9697 59.5052 73.2031 60.3459 72.2143 60.9426C71.2255 61.5394 70.0843 61.8399 68.7994 61.8399H66.3863C66.0596 61.8399 65.7286 61.7963 65.3845 61.7136V55.2975C65.3845 54.7792 65.5892 54.2913 65.9551 53.9211C66.3209 53.5509 66.8131 53.3505 67.3315 53.3505H68.2114L68.2733 58.5078L72.994 51.9044L68.2733 46.5078L68.2114 50.3624H67.3315C66.016 50.3624 64.7746 50.8764 63.8425 51.8086C62.9104 52.7407 62.3964 53.9821 62.3964 55.2975V63.8261H62.4138V68.4302H59.2036V44.3471H62.2744V46.5207C62.7579 45.7845 63.3851 45.1921 64.1561 44.7435C64.9271 44.2949 65.7024 44.0684 66.4865 44.0684H68.8691C70.803 44.0684 72.358 44.6651 73.5428 45.8629C73.9653 46.2898 74.3138 46.7689 74.5838 47.2916C75.0804 48.2325 75.3243 49.3301 75.3243 50.5889Z" fill="white"/>
</svg>
