<?xml version="1.0" encoding="utf-8"?>
<!-- Generator: Adobe Illustrator 27.1.0, SVG Export Plug-In . SVG Version: 6.00 Build 0)  -->
<svg version="1.1" id="Capa_1" xmlns="http://www.w3.org/2000/svg" xmlns:xlink="http://www.w3.org/1999/xlink" x="0px" y="0px"
	 viewBox="0 0 978 199.5" style="enable-background:new 0 0 978 199.5;" xml:space="preserve">
<style type="text/css">
	.st0{fill:#ED472C;}
	.st1{fill:#3E4852;}
	.st2{fill:#203E6C;}
	.st3{fill:#B93643;}
</style>
<g>
	<g>
		<g>
			<path class="st0" d="M959.21,66.93c-0.19-0.22-0.35-0.42-0.57-0.63l-9.72-9.38c8.06-1.83,16.74-8.58,16.74-15.51
				c0-8.07-11.2-10.94-20.77-10.94c-9.99,0-11.15,6.85-11.28,11.69l-25.08-24.18c-5.1-5.04-14.75-9.01-21.98-9.01H837.7h-0.01
				h-48.86c-7.22,0-16.88,3.97-21.98,9.01l-25.08,24.18c-0.13-4.84-1.29-11.69-11.28-11.69c-9.57,0-20.77,2.86-20.77,10.94
				c0,6.93,8.69,13.68,16.75,15.51l-9.72,9.38c-0.22,0.21-0.37,0.42-0.57,0.63c-10.4,8.89-17.2,25.38-17.2,37.35v35.55
				c0,8.63,3.4,16.46,8.9,22.3v13.78c0,8.06,6.75,14.64,15.05,14.64h18.2c8.3,0,15.04-6.56,15.04-14.64v-3.53h81.51h0.01h81.51v3.53
				c0,8.07,6.74,14.64,15.05,14.64h18.19c8.31,0,15.05-6.57,15.05-14.64v-13.78c5.5-5.84,8.9-13.67,8.9-22.3v-35.55
				C976.41,92.3,969.61,75.82,959.21,66.93z M776.06,28.71c3.53-2.94,9.69-5.17,12.77-5.17h48.86h0.01h48.86
				c3.07,0,9.24,2.23,12.77,5.17l32.89,31.88H837.7h-0.01h-94.51L776.06,28.71z M710.27,98.89c0-8.75,6.85-15.86,15.31-15.86
				c8.45,0,36.08,16.22,36.08,24.97s-27.62,6.73-36.08,6.73C717.12,114.73,710.27,107.65,710.27,98.89z M756.18,156.79h-2.92h-2.92
				l-17.3,0.03c-4.8-1.49-8.19-3.24-10.58-5.11c-1.21-0.95-2.14-1.93-2.86-2.91c-0.73-0.99-1.26-1.96-1.61-2.93
				c-2.15-6.08,2.29-11.67,2.29-11.67h29.52l19.68,22.59L756.18,156.79L756.18,156.79z M880.14,156.8H837.7h-0.01h-42.44
				c-8.85,0-16.03-7.18-16.03-16.03h58.48h0.01h58.48C896.18,149.62,888.99,156.8,880.14,156.8z M883.87,129.84H837.7h-0.01h-46.17
				c-9.63,0-17.44-11.87-17.44-26.5h63.61h0.01h63.61C901.31,117.97,893.49,129.84,883.87,129.84z M957.4,145.86
				c-0.35,0.97-0.88,1.95-1.61,2.93c-0.72,0.98-1.65,1.96-2.86,2.91c-2.39,1.87-5.78,3.63-10.58,5.11l-17.3-0.03h-2.92h-2.92h-13.32
				l19.69-22.59h29.52C955.09,134.2,959.54,139.78,957.4,145.86z M949.81,114.73c-8.45,0-36.07,2.02-36.07-6.73
				c0-8.75,27.62-24.97,36.07-24.97c8.46,0,15.31,7.11,15.31,15.86C965.12,107.64,958.27,114.73,949.81,114.73z"/>
		</g>
	</g>
	<g>
		<g>
			<rect x="596.62" y="0.61" class="st0" width="9.64" height="198.28"/>
		</g>
	</g>
	<g>
		<g>
			<g>
				<g>
					<path class="st0" d="M287.12,64.06V35.3c0.3-0.07,0.42,0.12,0.64,0.23c0.48,0.25,3.22,2.03,3.22,2.37v35.41l-30.49-32.61v31.94
						c0,0.02-0.27,0.29-0.29,0.29h-3.57V31.93c0-0.06-0.24-0.21-0.2-0.38l0.39-0.01L287.12,64.06z"/>
				</g>
				<g>
					<g>
						<path class="st0" d="M377.63,32.22v3.67h-24.31v11.19h20.65v3.67h-20.65v18.53h24.89v3.38c0,0.02-0.27,0.29-0.29,0.29h-28.37
							V32.22H377.63z"/>
					</g>
					<g>
						<path class="st0" d="M418.92,32.22v3.67h-14.09v37.05h-3.86V36.17c0-0.02-0.27-0.29-0.29-0.29H386.7v-3.67H418.92z"/>
					</g>
				</g>
				<g>
					<path class="st0" d="M312.98,35.3v33.96h24.89v3.38c0,0.02-0.27,0.29-0.29,0.29h-28.17c-0.02,0-0.29-0.27-0.29-0.29V37.71
						C310.38,36.91,311.6,35.82,312.98,35.3z"/>
				</g>
				<g>
					<g>
						<path class="st0" d="M192.18,50.55v22.38h-3.76c-0.02,0-0.29-0.27-0.29-0.29v-22.1h-7.33v-3.47h7.33V32.22l20.95-0.01
							c6.38,0.49,12.42,3.04,11.66,10.52c-0.56,5.5-5.86,7.52-10.7,7.83C204.23,50.92,198.03,50.26,192.18,50.55z M192.18,47.07
							c5.44-0.21,11.09,0.27,16.51,0.01c4.98-0.25,8.98-1.08,7.95-7.2c-0.55-3.27-4.67-3.85-7.38-4.01
							c-5.57-0.33-11.48,0.26-17.09,0.01V47.07z"/>
					</g>
					<g>
						<rect x="234.44" y="32.22" class="st0" width="3.86" height="40.72"/>
					</g>
				</g>
			</g>
			<g>
				<g>
					<path class="st1" d="M154.16,76.08v-8.45c0-0.2,2.75-1.03,3.03-2.54l-0.16-24.48l-31.77-24.01l-1.81,0.89L93.18,40.61L93,65.71
						c0.44,0.46,3.05,2.03,3.05,2.44v7.94l-7.93-5.75l-1.46-1.92l-0.09-29.67l0.27-1.42c12.14-9.67,24.67-19.15,37.24-28.3
						c1.85-0.5,2.3,0.17,3.69,1.06c9.64,6.19,21.62,16.01,30.75,23.31c1.17,0.94,4.57,3.28,4.95,4.51l0.08,30.52
						c-0.16,0.72-0.63,1.11-1.12,1.59C160.33,72.09,156.53,74.14,154.16,76.08z"/>
				</g>
				<g>
					<g>
						<path class="st0" d="M123.66,48.8c1.07-0.17,2.28-0.27,3.25,0.31c5.73,4.87,15.11,8.77,20.47,13.65c0.73,0.66,0.92,1,1.04,2
							c0.35,3.01,0.4,12.27,0.01,15.23c-0.05,0.37-0.05,0.73-0.34,1.01l-21.13,14.35c-2.03,1-2.32,0.82-4.2-0.21
							c-4.79-2.61-15.15-9.39-19.26-12.84c-1.45-1.21-1.88-1.72-2.07-3.67c-0.29-3.11-0.33-10.13,0.01-13.19
							c0.2-1.72,0.68-2.13,1.92-3.15C109.3,57.41,117.5,53.58,123.66,48.8z M142.26,78.04l-0.1-11.42l-16.95-11.42l-17.34,11.32
							l0.18,11.58l16.64,11.09l1-0.2L142.26,78.04z"/>
					</g>
					<g>
						<path class="st1" d="M129.16,80.81h-8.45c-0.03-2.45,1.33-5.96,1.04-8.29c-0.15-1.23-1.37-1.85-1.63-3.1
							c-1.57-7.55,9.25-8.28,9.99-1.86c0.31,2.64-1.88,3.57-2,4.98C127.92,74.84,129.39,78.33,129.16,80.81z"/>
					</g>
				</g>
			</g>
		</g>
		<g>
			<g>
				<path class="st2" d="M1.6,101.95v8.15h21.81v60.61h9.33v-60.61h21.81v-8.15H1.6z"/>
			</g>
			<g>
				<path class="st2" d="M92.07,126.12c-3.54-3.47-8.22-5.21-14.05-5.21h-8.25c-5.83,0-10.51,1.74-14.05,5.21
					c-3.54,3.47-5.3,8.06-5.3,13.75v12.77c0,5.63,1.75,10.18,5.25,13.66c3.5,3.47,8.14,5.21,13.9,5.21h8.35
					c5.83,0,10.52-1.73,14.1-5.21c3.57-3.47,5.35-8.02,5.35-13.66v-12.77C97.38,134.17,95.61,129.59,92.07,126.12z M88.24,152.25
					c0,3.41-0.95,6.13-2.85,8.15c-1.9,2.03-4.42,3.04-7.56,3.04h-8.15c-3.08,0-5.53-1.01-7.37-3.04c-1.83-2.03-2.75-4.75-2.75-8.15
					v-12.08c0-3.4,0.93-6.12,2.8-8.15c1.87-2.03,4.34-3.04,7.42-3.04h8.25c3.08,0,5.55,1.02,7.42,3.04c1.87,2.03,2.8,4.75,2.8,8.15
					V152.25z"/>
			</g>
			<g>
				<path class="st2" d="M152.35,126.02c-3.37-3.4-7.81-5.11-13.31-5.11h-6.78c-2.23,0-4.44,0.64-6.63,1.92
					c-2.19,1.28-3.98,2.96-5.36,5.06v-6.19h-8.74v68.56h9.13V165.8c1.31,1.7,3.03,3.08,5.16,4.13c2.13,1.04,4.18,1.57,6.14,1.57
					h6.88c3.67,0,6.91-0.85,9.72-2.55c2.81-1.7,4.99-4.09,6.53-7.17c1.54-3.08,2.31-6.61,2.31-10.61v-11.69
					C157.41,133.91,155.72,129.42,152.35,126.02z M148.17,150.87c0,3.8-0.92,6.84-2.75,9.14c-1.84,2.29-4.29,3.44-7.37,3.44h-6.29
					c-2.88,0-5.36-1.03-7.42-3.09c-2.06-2.06-3.29-4.73-3.68-8.01v-13.07c0.85-3.08,2.31-5.56,4.37-7.46
					c2.06-1.9,4.31-2.85,6.73-2.85h6.58c2.95,0,5.32,1,7.12,3c1.8,2,2.7,4.6,2.7,7.81V150.87z"/>
			</g>
			<g>
				<path class="st2" d="M265.66,125.28c-3.14-2.91-7.3-4.37-12.47-4.37h-8.06c-5.17,0-9.35,1.31-12.52,3.93
					c-3.18,2.62-4.76,6.06-4.76,10.32h9.04c0-1.9,0.75-3.44,2.26-4.62c1.51-1.18,3.5-1.77,5.99-1.77h8.06
					c2.42,0,4.39,0.74,5.89,2.21s2.26,3.42,2.26,5.85v7.17c-1.57-1.05-3.47-1.87-5.7-2.46c-2.23-0.59-4.32-0.88-6.29-0.88h-6.19
					c-4.98,0-9.01,1.26-12.08,3.78c-3.08,2.52-4.62,5.85-4.62,9.97v3.24c0,4.19,1.47,7.55,4.42,10.07
					c2.95,2.52,6.88,3.78,11.79,3.78h5.89c2.49,0,4.94-0.67,7.37-2.01c2.42-1.34,4.39-3.13,5.89-5.35v6.58h8.55v-33.89
					C270.38,132.05,268.81,128.2,265.66,125.28z M261.34,154.7c-0.85,2.81-2.39,5.06-4.62,6.73c-2.23,1.67-4.78,2.5-7.66,2.5h-5.8
					c-2.36,0-4.24-0.57-5.65-1.72c-1.41-1.15-2.11-2.7-2.11-4.67v-2.95c0-1.97,0.72-3.54,2.16-4.72c1.44-1.18,3.3-1.77,5.6-1.77
					h6.29c2.29,0,4.52,0.33,6.68,0.98c2.16,0.66,3.86,1.54,5.11,2.65V154.7z"/>
			</g>
			<g>
				<path class="st2" d="M306.53,121.5c-2.75,0-5.39,0.69-7.91,2.06c-2.52,1.37-4.44,3.14-5.75,5.3v-7.17h-8.74v49.02h9.14v-27.7
					c0-3.99,1.21-7.22,3.63-9.68c2.42-2.46,5.63-3.68,9.63-3.68h5.11v-8.15H306.53z"/>
			</g>
			<g>
				<path class="st2" d="M343.38,142.72l21.22-21.02h-10.9L331,144.19v-42.24h-9.14v68.76H331V155l6.38-6.29l17.88,22h10.61
					L343.38,142.72z"/>
			</g>
			<g>
				<path class="st2" d="M382.9,104.56c-1.15-1.15-2.67-1.72-4.57-1.72c-1.9,0-3.44,0.57-4.62,1.72c-1.18,1.15-1.77,2.64-1.77,4.47
					c0,1.84,0.59,3.32,1.77,4.47c1.18,1.15,2.72,1.72,4.62,1.72c1.9,0,3.42-0.57,4.57-1.72c1.15-1.15,1.72-2.64,1.72-4.47
					C384.62,107.19,384.05,105.7,382.9,104.56z M373.72,121.7v49.02h9.14V121.7H373.72z"/>
			</g>
			<g>
				<path class="st2" d="M439.49,125.63c-2.92-3.14-6.73-4.72-11.45-4.72h-6.48c-2.36,0-4.73,0.71-7.12,2.11
					c-2.39,1.41-4.31,3.23-5.75,5.45v-6.78h-8.74v49.02h9.14v-30.06c0.65-3.47,2.13-6.29,4.42-8.45c2.29-2.16,4.85-3.24,7.66-3.24
					h6.09c2.23,0,4.03,0.84,5.4,2.5c1.38,1.67,2.06,3.85,2.06,6.53v32.71h9.13V138C443.86,132.9,442.41,128.77,439.49,125.63z"/>
			</g>
			<g>
				<path class="st2" d="M495.25,121.7v5.3c-1.24-1.77-2.98-3.22-5.21-4.37c-2.23-1.14-4.39-1.72-6.48-1.72h-6.48
					c-3.73,0-7.04,0.82-9.92,2.46c-2.88,1.64-5.13,3.96-6.73,6.98c-1.6,3.01-2.41,6.45-2.41,10.32v11c0,3.73,0.75,7.04,2.26,9.92
					c1.51,2.88,3.63,5.11,6.38,6.68c2.75,1.57,5.89,2.36,9.43,2.36h7.07c1.97,0,4.03-0.56,6.19-1.67c2.16-1.11,3.96-2.55,5.4-4.32
					v6.58c0,3.6-0.83,6.43-2.5,8.5c-1.67,2.06-3.98,3.1-6.93,3.1h-8.35c-2.03,0-3.73-0.56-5.11-1.67c-1.37-1.12-2.16-2.55-2.36-4.32
					h-9.13c0.33,4.13,2.01,7.47,5.06,10.02c3.04,2.55,6.89,3.83,11.54,3.83h8.35c5.76,0,10.3-1.74,13.61-5.21
					c3.3-3.47,4.96-8.22,4.96-14.24V121.7H495.25z M494.76,149.69c-0.26,3.8-1.46,6.91-3.59,9.33c-2.13,2.42-4.7,3.63-7.71,3.63
					h-6.98c-2.69,0-4.91-1.05-6.68-3.14c-1.77-2.09-2.65-4.81-2.65-8.15v-10.41c0-3.6,0.97-6.5,2.9-8.69
					c1.93-2.19,4.43-3.29,7.51-3.29h6.78c2.75,0,5.11,0.97,7.07,2.9c1.96,1.93,3.08,4.44,3.34,7.51V149.69z"/>
			</g>
			<g>
				<path class="st3" d="M216.06,139.48v11.69c0,3.8-0.7,7.18-2.09,10.15c-0.07,0.15-0.14,0.31-0.22,0.46
					c-1.54,3.08-3.72,5.47-6.53,7.17c-2.82,1.7-6.06,2.55-9.72,2.55h-6.88c-0.93,0-1.88-0.12-2.85-0.36l0-18.27
					c0-1.48,0.58-2.87,1.63-3.92c1.05-1.05,2.44-1.63,3.92-1.63l2.5,0v5.08l9.15-6.66l4.46-2.53l-4.46-2.53l-9.15-6.66v4.79h-2.5
					c-3.75,0-7.27,1.46-9.93,4.12c-2.66,2.65-4.12,6.18-4.12,9.93l0,24.28h0.06v13.11h-9.13V121.7h8.74v6.19
					c1.38-2.1,3.16-3.78,5.36-5.06c2.19-1.28,4.4-1.92,6.63-1.92h6.78c5.5,0,9.94,1.7,13.31,5.11c1.2,1.22,2.19,2.57,2.97,4.07
					C215.36,132.77,216.06,135.9,216.06,139.48z"/>
			</g>
		</g>
	</g>
</g>
</svg>
