<svg width="102" height="67" viewBox="0 0 102 67" fill="none"
    xmlns="http://www.w3.org/2000/svg">
    <path
        d="M95.3521 21.2387C95.2824 21.1603 95.2258 21.0819 95.1431 21.0079L91.58 17.5712C94.5333 16.9004 97.713 14.4263 97.713 11.8869C97.713 8.92933 93.6098 7.87959 90.1034 7.87959C86.4402 7.87959 86.0177 10.3885 85.9698 12.1613L76.7791 3.30167C74.9105 1.45483 71.3736 0 68.7253 0H50.8231H50.8188H32.9165C30.2726 0 26.7313 1.45483 24.8627 3.30167L15.6764 12.1613C15.6285 10.3885 15.2016 7.87959 11.5428 7.87959C8.03639 7.87959 3.93325 8.92933 3.93325 11.8869C3.93325 14.4263 7.11732 16.9004 10.0705 17.5712L6.50752 21.0079C6.42476 21.0863 6.37247 21.1603 6.29843 21.2387C2.48713 24.4968 0 30.5383 0 34.9202V47.944C0 51.1062 1.24575 53.9767 3.26247 56.1154V61.1637C3.26247 64.1169 5.73653 66.5257 8.77686 66.5257H15.4455C18.4859 66.5257 20.9556 64.1213 20.9556 61.1637V59.8701H50.8231H50.8275H80.6906V61.1637C80.6906 64.1213 83.1603 66.5257 86.205 66.5257H92.8693C95.914 66.5257 98.3838 64.1169 98.3838 61.1637V56.1154C100.396 53.9767 101.646 51.1062 101.646 47.944V34.9202C101.651 30.5383 99.1634 24.4968 95.3521 21.2387ZM28.2472 7.23929C29.5408 6.16341 31.7971 5.34453 32.9252 5.34453H50.8275H50.8318H68.734C69.8622 5.34453 72.1185 6.16341 73.4121 7.23929L85.4645 18.9171H50.8318H50.8275H16.1991L28.2472 7.23929ZM4.14231 32.9514C4.14231 29.7456 6.65124 27.1408 9.75255 27.1408C12.8495 27.1408 22.9723 33.0821 22.9723 36.2879C22.9723 39.4938 12.8495 38.7533 9.75255 38.7533C6.65124 38.7533 4.14231 36.1572 4.14231 32.9514ZM20.9643 54.164H19.8972H18.83L12.4923 54.1727C10.7326 53.6282 9.49121 52.9879 8.6157 52.2997C8.17141 51.9513 7.83167 51.5941 7.56597 51.2326C7.30027 50.871 7.10424 50.5139 6.97792 50.1567C6.18953 47.9309 7.81858 45.8793 7.81858 45.8793H18.634L25.8428 54.1553L20.9643 54.164ZM66.3819 54.1683H50.8318H50.8275H35.2774C32.0367 54.1683 29.4014 51.5375 29.4014 48.2968H50.8275H50.8318H72.2578C72.2578 51.5375 69.6226 54.1683 66.3819 54.1683ZM67.7453 44.2895H50.8318H50.8275H33.914C30.3858 44.2895 27.5241 39.9424 27.5241 34.5805H50.8275H50.8318H74.1352C74.1352 39.9424 71.2734 44.2895 67.7453 44.2895ZM94.69 50.161C94.5594 50.5182 94.3677 50.8754 94.0977 51.2369C93.8363 51.5941 93.4922 51.9556 93.0479 52.3041C92.1724 52.9923 90.931 53.6326 89.1713 54.1771L82.8337 54.164H81.7665H80.6993H75.8208L83.034 45.888H93.8494C93.845 45.888 95.4741 47.9309 94.69 50.161ZM91.9067 38.7533C88.8098 38.7533 78.6913 39.4938 78.6913 36.2879C78.6913 33.0821 88.8141 27.1408 91.9067 27.1408C95.008 27.1408 97.5169 29.7456 97.5169 32.9514C97.5169 36.1572 95.008 38.7533 91.9067 38.7533Z"
        fill="#3E4852" />
</svg>