<svg width="2772" height="803" viewBox="0 0 2772 803" fill="none" xmlns="http://www.w3.org/2000/svg">
<mask id="path-1-inside-1_45_22" fill="white">
<path d="M1893.29 0.0078125C1947.93 0.699568 1992 45.2028 1992 100V702.246C1992 757.475 1947.23 802.246 1892 802.246H864C808.772 802.246 764 757.475 764 702.246V100C764 45.2032 808.074 0.700076 862.707 0.0078125L864 0H1892L1893.29 0.0078125ZM794 702.246C794 740.906 825.34 772.246 864 772.246H1892C1930.66 772.246 1962 740.906 1962 702.246V252.461H794V702.246ZM1859.64 520.757C1881.73 520.757 1899.64 538.665 1899.64 560.757V678.68L1899.62 679.712C1899.08 700.983 1881.94 718.127 1860.67 718.666L1859.64 718.68H1637.03L1636 718.666C1614.73 718.127 1597.59 700.983 1597.05 679.712L1597.03 678.68V560.757C1597.03 538.666 1614.94 520.757 1637.03 520.757H1859.64ZM1365.61 694.929H840.607V660.929H1365.61V694.929ZM1637.03 550.757C1631.51 550.757 1627.03 555.234 1627.03 560.757V678.68C1627.03 684.202 1631.51 688.68 1637.03 688.68H1859.64C1865.16 688.68 1869.64 684.202 1869.64 678.68V560.757C1869.64 555.234 1865.16 550.757 1859.64 550.757H1637.03ZM1208.82 590.249H840.818V551.249H1208.82V590.249ZM635.212 523H250.212V486H635.212V523ZM500.212 448H115.212V411H500.212V448ZM2771.21 401H2386.21V364H2771.21V401ZM385 374H0V337H385V374ZM2636.21 326H2251.21V289H2636.21V326ZM2521 252H2136V215H2521V252ZM794 215.461H1962V147.782H794V215.461ZM864 30C825.34 30 794 61.3401 794 100V111.782H1962V100C1962 61.3401 1930.66 30 1892 30H864Z"/>
</mask>
<path d="M1893.29 0.0078125C1947.93 0.699568 1992 45.2028 1992 100V702.246C1992 757.475 1947.23 802.246 1892 802.246H864C808.772 802.246 764 757.475 764 702.246V100C764 45.2032 808.074 0.700076 862.707 0.0078125L864 0H1892L1893.29 0.0078125ZM794 702.246C794 740.906 825.34 772.246 864 772.246H1892C1930.66 772.246 1962 740.906 1962 702.246V252.461H794V702.246ZM1859.64 520.757C1881.73 520.757 1899.64 538.665 1899.64 560.757V678.68L1899.62 679.712C1899.08 700.983 1881.94 718.127 1860.67 718.666L1859.64 718.68H1637.03L1636 718.666C1614.73 718.127 1597.59 700.983 1597.05 679.712L1597.03 678.68V560.757C1597.03 538.666 1614.94 520.757 1637.03 520.757H1859.64ZM1365.61 694.929H840.607V660.929H1365.61V694.929ZM1637.03 550.757C1631.51 550.757 1627.03 555.234 1627.03 560.757V678.68C1627.03 684.202 1631.51 688.68 1637.03 688.68H1859.64C1865.16 688.68 1869.64 684.202 1869.64 678.68V560.757C1869.64 555.234 1865.16 550.757 1859.64 550.757H1637.03ZM1208.82 590.249H840.818V551.249H1208.82V590.249ZM635.212 523H250.212V486H635.212V523ZM500.212 448H115.212V411H500.212V448ZM2771.21 401H2386.21V364H2771.21V401ZM385 374H0V337H385V374ZM2636.21 326H2251.21V289H2636.21V326ZM2521 252H2136V215H2521V252ZM794 215.461H1962V147.782H794V215.461ZM864 30C825.34 30 794 61.3401 794 100V111.782H1962V100C1962 61.3401 1930.66 30 1892 30H864Z" fill="#EB472A"/>
<path d="M1893.29 0.0078125L1893.3 -0.992129L1893.3 -0.992169L1893.29 0.0078125ZM1992 100L1993 100V100L1992 100ZM864 802.246L864 803.246H864V802.246ZM764 100L763 100V100H764ZM862.707 0.0078125L862.701 -0.992191L862.694 -0.992107L862.707 0.0078125ZM864 0V-1.00002L863.994 -0.999982L864 0ZM1892 0L1892.01 -1H1892V0ZM864 772.246L864 773.246H864V772.246ZM1962 252.461H1963V251.461H1962V252.461ZM794 252.461V251.461H793V252.461H794ZM1899.64 560.757L1900.64 560.757V560.757L1899.64 560.757ZM1899.64 678.68L1900.64 678.692V678.68H1899.64ZM1899.62 679.712L1900.62 679.737L1900.62 679.724L1899.62 679.712ZM1860.67 718.666L1860.68 719.666L1860.69 719.666L1860.67 718.666ZM1859.64 718.68V719.68L1859.65 719.68L1859.64 718.68ZM1637.03 718.68L1637.02 719.68H1637.03V718.68ZM1636 718.666L1635.98 719.666L1635.99 719.666L1636 718.666ZM1597.05 679.712L1596.05 679.724L1596.05 679.737L1597.05 679.712ZM1597.03 678.68H1596.03L1596.03 678.692L1597.03 678.68ZM1637.03 520.757L1637.03 519.757L1637.03 519.757L1637.03 520.757ZM1365.61 694.929V695.929H1366.61V694.929H1365.61ZM840.607 694.929H839.607V695.929H840.607V694.929ZM840.607 660.929V659.929H839.607V660.929H840.607ZM1365.61 660.929H1366.61V659.929H1365.61V660.929ZM1637.03 550.757L1637.03 549.757L1637.03 549.757L1637.03 550.757ZM1627.03 678.68L1626.03 678.68L1626.03 678.68L1627.03 678.68ZM1637.03 688.68L1637.03 689.68H1637.03V688.68ZM1869.64 678.68L1870.64 678.68V678.68H1869.64ZM1869.64 560.757L1870.64 560.757V560.757L1869.64 560.757ZM1208.82 590.249V591.249H1209.82V590.249H1208.82ZM840.818 590.249H839.818V591.249H840.818V590.249ZM840.818 551.249V550.249H839.818V551.249H840.818ZM1208.82 551.249H1209.82V550.249H1208.82V551.249ZM635.212 523V524H636.212V523H635.212ZM250.212 523H249.212V524H250.212V523ZM250.212 486V485H249.212V486H250.212ZM635.212 486H636.212V485H635.212V486ZM500.212 448V449H501.212V448H500.212ZM115.212 448H114.212V449H115.212V448ZM115.212 411V410H114.212V411H115.212ZM500.212 411H501.212V410H500.212V411ZM2771.21 401V402H2772.21V401H2771.21ZM2386.21 401H2385.21V402H2386.21V401ZM2386.21 364V363H2385.21V364H2386.21ZM2771.21 364H2772.21V363H2771.21V364ZM385 374V375H386V374H385ZM0 374H-1V375H0V374ZM0 337V336H-1V337H0ZM385 337H386V336H385V337ZM2636.21 326V327H2637.21V326H2636.21ZM2251.21 326H2250.21V327H2251.21V326ZM2251.21 289V288H2250.21V289H2251.21ZM2636.21 289H2637.21V288H2636.21V289ZM2521 252V253H2522V252H2521ZM2136 252H2135V253H2136V252ZM2136 215V214H2135V215H2136ZM2521 215H2522V214H2521V215ZM794 215.461H793V216.461H794V215.461ZM1962 215.461V216.461H1963V215.461H1962ZM1962 147.782H1963V146.782H1962V147.782ZM794 147.782V146.782H793V147.782H794ZM794 100L793 100V100H794ZM794 111.782H793V112.782H794V111.782ZM1962 111.782V112.782H1963V111.782H1962ZM1962 100L1963 100V100L1962 100ZM1892 30L1892 29H1892V30ZM1893.29 0.0078125L1893.28 1.00773C1947.37 1.69257 1991 45.7509 1991 100L1992 100L1993 100C1993 44.6548 1948.48 -0.293431 1893.3 -0.992107L1893.29 0.0078125ZM1992 100H1991V702.246H1992H1993V100H1992ZM1992 702.246H1991C1991 756.922 1946.68 801.246 1892 801.246V802.246V803.246C1947.78 803.246 1993 758.027 1993 702.246H1992ZM1892 802.246V801.246H864V802.246V803.246H1892V802.246ZM864 802.246L864 801.246C809.324 801.246 765 756.922 765 702.246H764H763C763 758.027 808.219 803.246 864 803.246L864 802.246ZM764 702.246H765V100H764H763V702.246H764ZM764 100L765 100C765 45.7512 808.634 1.69307 862.72 1.00773L862.707 0.0078125L862.694 -0.992107C807.515 -0.292918 763 44.6551 763 100L764 100ZM862.707 0.0078125L862.713 1.00779L864.006 0.999982L864 0L863.994 -0.999982L862.701 -0.992169L862.707 0.0078125ZM864 0V1H1892V0V-1H864V0ZM1892 0L1891.99 0.999982L1893.29 1.00779L1893.29 0.0078125L1893.3 -0.992169L1892.01 -0.999982L1892 0ZM794 702.246H793C793 741.458 824.788 773.246 864 773.246L864 772.246L864 771.246C825.892 771.246 795 740.354 795 702.246H794ZM864 772.246V773.246H1892V772.246V771.246H864V772.246ZM1892 772.246V773.246C1931.21 773.246 1963 741.458 1963 702.246H1962H1961C1961 740.354 1930.11 771.246 1892 771.246V772.246ZM1962 702.246H1963V252.461H1962H1961V702.246H1962ZM1962 252.461V251.461H794V252.461V253.461H1962V252.461ZM794 252.461H793V702.246H794H795V252.461H794ZM1859.64 520.757V521.757C1881.17 521.757 1898.64 539.218 1898.64 560.757L1899.64 560.757L1900.64 560.757C1900.64 538.113 1882.28 519.757 1859.64 519.757V520.757ZM1899.64 560.757H1898.64V678.68H1899.64H1900.64V560.757H1899.64ZM1899.64 678.68L1898.64 678.667L1898.62 679.7L1899.62 679.712L1900.62 679.724L1900.64 678.692L1899.64 678.68ZM1899.62 679.712L1898.62 679.687C1898.1 700.425 1881.38 717.141 1860.64 717.666L1860.67 718.666L1860.69 719.666C1882.5 719.113 1900.07 701.541 1900.62 679.737L1899.62 679.712ZM1860.67 718.666L1860.65 717.666L1859.62 717.68L1859.64 718.68L1859.65 719.68L1860.68 719.666L1860.67 718.666ZM1859.64 718.68V717.68H1637.03V718.68V719.68H1859.64V718.68ZM1637.03 718.68L1637.05 717.68L1636.02 717.666L1636 718.666L1635.99 719.666L1637.02 719.68L1637.03 718.68ZM1636 718.666L1636.03 717.666C1615.29 717.141 1598.57 700.425 1598.05 679.687L1597.05 679.712L1596.05 679.737C1596.6 701.541 1614.17 719.113 1635.98 719.666L1636 718.666ZM1597.05 679.712L1598.05 679.7L1598.03 678.667L1597.03 678.68L1596.03 678.692L1596.05 679.724L1597.05 679.712ZM1597.03 678.68H1598.03V560.757H1597.03H1596.03V678.68H1597.03ZM1597.03 560.757H1598.03C1598.03 539.218 1615.5 521.757 1637.03 521.757L1637.03 520.757L1637.03 519.757C1614.39 519.757 1596.03 538.113 1596.03 560.757H1597.03ZM1637.03 520.757V521.757H1859.64V520.757V519.757H1637.03V520.757ZM1365.61 694.929V693.929H840.607V694.929V695.929H1365.61V694.929ZM840.607 694.929H841.607V660.929H840.607H839.607V694.929H840.607ZM840.607 660.929V661.929H1365.61V660.929V659.929H840.607V660.929ZM1365.61 660.929H1364.61V694.929H1365.61H1366.61V660.929H1365.61ZM1637.03 550.757L1637.03 549.757C1630.96 549.757 1626.03 554.682 1626.03 560.757H1627.03H1628.03C1628.03 555.786 1632.06 551.757 1637.03 551.757L1637.03 550.757ZM1627.03 560.757H1626.03V678.68H1627.03H1628.03V560.757H1627.03ZM1627.03 678.68L1626.03 678.68C1626.03 684.754 1630.96 689.68 1637.03 689.68L1637.03 688.68L1637.03 687.68C1632.06 687.68 1628.03 683.65 1628.03 678.68L1627.03 678.68ZM1637.03 688.68V689.68H1859.64V688.68V687.68H1637.03V688.68ZM1859.64 688.68V689.68C1865.71 689.68 1870.64 684.754 1870.64 678.68L1869.64 678.68L1868.64 678.68C1868.64 683.65 1864.61 687.68 1859.64 687.68V688.68ZM1869.64 678.68H1870.64V560.757H1869.64H1868.64V678.68H1869.64ZM1869.64 560.757L1870.64 560.757C1870.64 554.682 1865.71 549.757 1859.64 549.757V550.757V551.757C1864.61 551.757 1868.64 555.786 1868.64 560.757L1869.64 560.757ZM1859.64 550.757V549.757H1637.03V550.757V551.757H1859.64V550.757ZM1208.82 590.249V589.249H840.818V590.249V591.249H1208.82V590.249ZM840.818 590.249H841.818V551.249H840.818H839.818V590.249H840.818ZM840.818 551.249V552.249H1208.82V551.249V550.249H840.818V551.249ZM1208.82 551.249H1207.82V590.249H1208.82H1209.82V551.249H1208.82ZM635.212 523V522H250.212V523V524H635.212V523ZM250.212 523H251.212V486H250.212H249.212V523H250.212ZM250.212 486V487H635.212V486V485H250.212V486ZM635.212 486H634.212V523H635.212H636.212V486H635.212ZM500.212 448V447H115.212V448V449H500.212V448ZM115.212 448H116.212V411H115.212H114.212V448H115.212ZM115.212 411V412H500.212V411V410H115.212V411ZM500.212 411H499.212V448H500.212H501.212V411H500.212ZM2771.21 401V400H2386.21V401V402H2771.21V401ZM2386.21 401H2387.21V364H2386.21H2385.21V401H2386.21ZM2386.21 364V365H2771.21V364V363H2386.21V364ZM2771.21 364H2770.21V401H2771.21H2772.21V364H2771.21ZM385 374V373H0V374V375H385V374ZM0 374H1V337H0H-1V374H0ZM0 337V338H385V337V336H0V337ZM385 337H384V374H385H386V337H385ZM2636.21 326V325H2251.21V326V327H2636.21V326ZM2251.21 326H2252.21V289H2251.21H2250.21V326H2251.21ZM2251.21 289V290H2636.21V289V288H2251.21V289ZM2636.21 289H2635.21V326H2636.21H2637.21V289H2636.21ZM2521 252V251H2136V252V253H2521V252ZM2136 252H2137V215H2136H2135V252H2136ZM2136 215V216H2521V215V214H2136V215ZM2521 215H2520V252H2521H2522V215H2521ZM794 215.461V216.461H1962V215.461V214.461H794V215.461ZM1962 215.461H1963V147.782H1962H1961V215.461H1962ZM1962 147.782V146.782H794V147.782V148.782H1962V147.782ZM794 147.782H793V215.461H794H795V147.782H794ZM864 30V29C824.788 29 793 60.7878 793 100L794 100L795 100C795 61.8924 825.892 31 864 31V30ZM794 100H793V111.782H794H795V100H794ZM794 111.782V112.782H1962V111.782V110.782H794V111.782ZM1962 111.782H1963V100H1962H1961V111.782H1962ZM1962 100L1963 100C1963 60.7878 1931.21 29 1892 29L1892 30L1892 31C1930.11 31 1961 61.8924 1961 100L1962 100ZM1892 30V29H864V30V31H1892V30Z" fill="black" mask="url(#path-1-inside-1_45_22)"/>
</svg>
