<svg width="1735" height="1767" viewBox="0 0 1735 1767" fill="none" xmlns="http://www.w3.org/2000/svg">
<path d="M18.4849 49.7314C36.0741 32.1422 61.4624 27.1069 83.5181 34.623L1731.55 1682.65C1739.06 1704.71 1734.03 1730.1 1716.44 1747.68C1691.79 1772.33 1651.83 1772.33 1627.19 1747.68L1414.91 1535.41C1399.9 1537.58 1384.67 1538.7 1369.32 1538.72L471.738 1538.72C386.75 1538.62 305.271 1504.81 245.175 1444.71C185.08 1384.62 151.274 1303.14 151.172 1218.15L151.171 641.133C151.273 556.145 185.08 474.666 245.175 414.57C253.381 406.365 261.986 398.65 270.944 391.443L18.4849 138.984C-6.16146 114.338 -6.1616 74.3779 18.4849 49.7314ZM1369.32 320.566C1454.31 320.668 1535.79 354.476 1595.88 414.571C1655.98 474.667 1689.79 556.145 1689.89 641.133L1689.89 1218.15C1689.81 1284.95 1668.9 1349.59 1630.77 1403.38L1274.73 1047.33C1294.6 1000.4 1305.16 949.538 1305.21 897.585C1305.21 821.503 1282.65 747.128 1240.38 683.868C1198.11 620.608 1138.03 571.304 1067.74 542.188C997.449 513.073 920.102 505.455 845.482 520.298C819.707 525.425 794.658 533.152 770.69 543.289L547.967 320.566H1369.32ZM586.424 706.924C566.011 742.696 551.363 781.708 543.241 822.539C528.398 897.159 536.017 974.505 565.132 1044.79C594.248 1115.09 643.553 1175.16 706.813 1217.43C770.073 1259.7 844.448 1282.26 920.53 1282.26C987.954 1282.2 1053.54 1264.45 1111.09 1231.59L1015.41 1135.91C986.063 1147.61 954.047 1154.04 920.529 1154.04C778.894 1154.04 664.077 1039.22 664.077 897.585C664.077 864.066 670.508 832.05 682.203 802.701L586.424 706.924ZM920.529 641.132C1062.16 641.132 1176.98 755.95 1176.98 897.585C1176.98 913.846 1175.47 929.753 1172.57 945.174L872.94 645.539C888.361 642.645 904.268 641.132 920.529 641.132ZM1044.4 0C1073.81 0.106632 1102.8 6.90509 1129.2 19.8789C1155.59 32.853 1178.68 51.6636 1196.73 74.8848L1287.32 192.34L553.739 192.341L644.331 74.8848C662.376 51.6637 685.471 32.8539 711.863 19.8799C738.255 6.90582 767.255 0.106644 796.664 0H1044.4Z" fill="black"/>
</svg>
