<svg width="1701" height="1701" viewBox="0 0 1701 1701" fill="none" xmlns="http://www.w3.org/2000/svg">
<path d="M18.5674 18.5674C43.3241 -6.18911 83.4631 -6.18919 108.22 18.5674L266.24 176.588C314.244 146.29 370.202 129.811 427.867 129.742H1276.62C1356.98 129.839 1434.03 161.806 1490.85 218.632C1547.68 275.458 1579.65 352.503 1579.74 432.867V1281.62C1579.73 1338.86 1563.41 1394.87 1532.76 1443.11L1681.92 1592.26C1706.67 1617.02 1706.67 1657.16 1681.92 1681.92C1657.16 1706.67 1617.02 1706.67 1592.26 1681.92L628.462 718.113C628.258 718.142 628.055 718.171 627.852 718.2L175.243 265.592C175.336 265.452 175.428 265.312 175.521 265.172L18.5674 108.219C-6.18915 83.4622 -6.18913 43.3241 18.5674 18.5674ZM1312.9 1582.55C1300.9 1584.01 1288.79 1584.75 1276.62 1584.75H427.872C351.637 1584.51 278.3 1555.51 222.527 1503.54C166.755 1451.56 132.656 1380.45 127.051 1304.42L541.726 889.746C555.041 876.422 570.325 865.271 587.013 856.665L1312.9 1582.55ZM498.785 768.438C483.498 778.934 469.171 790.837 455.997 804.014L124.742 1135.27V432.867C124.757 420.686 125.503 408.581 126.958 396.61L498.785 768.438ZM1308.79 269.451C1264.48 251.097 1215.72 246.295 1168.68 255.651C1121.64 265.008 1078.43 288.105 1044.52 322.019C1010.6 355.933 987.508 399.142 978.151 446.183C968.794 493.223 973.597 541.982 991.951 586.293C1010.31 630.604 1041.39 668.478 1081.27 695.124C1121.15 721.77 1168.03 735.992 1215.99 735.992C1280.31 735.992 1341.99 710.443 1387.47 664.966C1432.94 619.488 1458.49 557.807 1458.49 493.492C1458.49 445.53 1444.27 398.645 1417.62 358.767C1390.98 318.888 1353.1 287.806 1308.79 269.451ZM1216 372.251C1282.96 372.251 1337.25 426.537 1337.25 493.501C1337.25 560.465 1282.96 614.751 1216 614.751C1149.03 614.751 1094.75 560.466 1094.75 493.501C1094.75 426.537 1149.03 372.251 1216 372.251Z" fill="black"/>
</svg>
