<svg width="1702" height="1701" viewBox="0 0 1702 1701" fill="none" xmlns="http://www.w3.org/2000/svg">
<path d="M18.5673 18.5673C43.3238 -6.18924 83.463 -6.18895 108.22 18.5673L297.248 207.596C297.34 207.456 297.434 207.317 297.526 207.178L750.467 660.119C750.263 660.147 750.059 660.174 749.855 660.203L1681.92 1592.26C1706.67 1617.02 1706.67 1657.16 1681.92 1681.92C1657.16 1706.67 1617.02 1706.67 1592.26 1681.92L1434.89 1524.55C1422.9 1526 1410.79 1526.74 1398.62 1526.75H549.871C473.636 1526.51 400.299 1497.5 344.526 1445.53C288.754 1393.56 254.655 1322.44 249.05 1246.42L663.725 831.741C677.039 818.418 692.322 807.267 709.009 798.661L620.789 710.441C605.502 720.938 591.174 732.841 578.001 746.017L246.746 1077.27V374.871C246.761 362.69 247.508 350.585 248.963 338.615L18.5673 108.22C-6.18899 83.4629 -6.18922 43.3238 18.5673 18.5673ZM1398.62 71.746C1478.98 71.8423 1556.03 103.81 1612.86 160.636C1669.68 217.462 1701.65 294.507 1701.75 374.871V1223.62C1701.73 1280.86 1685.41 1336.87 1654.76 1385.11L388.244 118.593C436.248 88.2943 492.205 71.8151 549.871 71.746H1398.62ZM1430.8 211.455C1386.49 193.101 1337.73 188.298 1290.69 197.655C1243.65 207.012 1200.44 230.108 1166.52 264.022C1132.61 297.936 1109.51 341.146 1100.16 388.186C1090.8 435.227 1095.6 483.986 1113.96 528.297C1132.31 572.608 1163.39 610.482 1203.27 637.128C1243.15 663.774 1290.03 677.996 1338 677.996C1402.31 677.996 1463.99 652.447 1509.47 606.97C1554.95 561.492 1580.5 499.811 1580.5 435.496C1580.5 387.534 1566.27 340.649 1539.63 300.77C1512.98 260.892 1475.11 229.809 1430.8 211.455ZM1338 314.246C1404.96 314.246 1459.25 368.532 1459.25 435.496C1459.25 502.46 1404.96 556.746 1338 556.746C1271.03 556.746 1216.75 502.46 1216.75 435.496C1216.75 368.532 1271.03 314.246 1338 314.246Z" fill="black"/>
</svg>
