<?xml version="1.0" encoding="utf-8"?>
<!-- Generator: Adobe Illustrator 27.1.0, SVG Export Plug-In . SVG Version: 6.00 Build 0)  -->
<svg version="1.1" id="Capa_1" xmlns="http://www.w3.org/2000/svg" xmlns:xlink="http://www.w3.org/1999/xlink" x="0px" y="0px"
	 viewBox="0 0 611 199.5" style="enable-background:new 0 0 611 199.5;" xml:space="preserve">
<style type="text/css">
	.st0{fill:#E84A2F;}
	.st1{fill:#3E4852;}
</style>
<g>
	<g>
		<g>
			<g>
				<path class="st0" d="M368.42,137.11V84.49c0.54-0.13,0.77,0.22,1.16,0.43c0.88,0.46,5.9,3.72,5.9,4.34v64.81l-55.81-59.69v58.45
					c0,0.04-0.49,0.53-0.53,0.53h-6.53V78.31c0-0.11-0.44-0.39-0.36-0.7l0.72-0.01L368.42,137.11z"/>
			</g>
			<g>
				<g>
					<path class="st0" d="M534.07,78.83v6.71h-44.5v20.49h37.79v6.71h-37.79v33.91h45.56v6.18c0,0.04-0.49,0.53-0.53,0.53h-51.92
						V78.83H534.07z"/>
				</g>
				<g>
					<path class="st0" d="M609.65,78.83v6.71h-25.78v67.81h-7.06V86.08c0-0.04-0.49-0.53-0.53-0.53h-25.61v-6.71H609.65z"/>
				</g>
			</g>
			<g>
				<path class="st0" d="M415.75,84.49v62.16h45.56v6.18c0,0.04-0.49,0.53-0.53,0.53h-51.57c-0.04,0-0.53-0.49-0.53-0.53V88.9
					C410.98,87.43,413.21,85.44,415.75,84.49z"/>
			</g>
			<g>
				<g>
					<path class="st0" d="M194.64,112.39v40.97h-6.89c-0.04,0-0.53-0.49-0.53-0.53v-40.44H173.8v-6.36h13.42v-27.2l38.34-0.01
						c11.68,0.9,22.73,5.56,21.35,19.26c-1.02,10.07-10.73,13.76-19.58,14.32C216.7,113.08,205.35,111.87,194.64,112.39z
						 M194.64,106.03c9.96-0.38,20.29,0.5,30.21,0.01c9.11-0.45,16.44-1.97,14.56-13.18c-1-5.98-8.54-7.04-13.5-7.34
						c-10.2-0.61-21.01,0.48-31.27,0.01V106.03z"/>
				</g>
				<g>
					<rect x="271.99" y="78.83" class="st0" width="7.06" height="74.53"/>
				</g>
			</g>
		</g>
		<g>
			<g>
				<path class="st1" d="M125.05,159.13v-15.46c0-0.37,5.03-1.88,5.55-4.65l-0.3-44.81L72.15,50.27l-3.31,1.64L13.43,94.2
					l-0.31,45.94c0.8,0.85,5.57,3.71,5.57,4.46v14.53L4.18,148.6l-2.67-3.51L1.35,90.77l0.49-2.6
					c22.23-17.7,45.15-35.05,68.16-51.81c3.39-0.92,4.21,0.31,6.75,1.94c17.65,11.32,39.57,29.3,56.28,42.66
					c2.14,1.71,8.37,6.01,9.06,8.25l0.14,55.86c-0.29,1.31-1.16,2.02-2.04,2.9C136.35,151.81,129.39,155.57,125.05,159.13z"/>
			</g>
			<g>
				<g>
					<path class="st0" d="M69.23,109.2c1.97-0.31,4.18-0.49,5.94,0.56c10.48,8.91,27.66,16.05,37.47,24.99
						c1.33,1.22,1.69,1.83,1.91,3.66c0.65,5.52,0.73,22.46,0.02,27.87c-0.09,0.68-0.1,1.33-0.62,1.86l-38.67,26.26
						c-3.71,1.83-4.25,1.5-7.69-0.38c-8.77-4.78-27.73-17.18-35.25-23.5c-2.65-2.22-3.45-3.14-3.79-6.73
						c-0.53-5.69-0.61-18.54,0.02-24.14c0.36-3.15,1.24-3.9,3.51-5.77C42.93,124.96,57.95,117.93,69.23,109.2z M103.27,162.72
						l-0.18-20.9l-31.03-20.9l-31.75,20.72l0.32,21.2l30.45,20.3l1.83-0.36L103.27,162.72z"/>
				</g>
				<g>
					<path class="st1" d="M79.29,167.79H63.83c-0.05-4.49,2.44-10.91,1.9-15.18c-0.28-2.24-2.51-3.38-2.99-5.68
						c-2.86-13.82,16.93-15.16,18.29-3.41c0.56,4.83-3.44,6.53-3.65,9.11C77.02,156.85,79.71,163.25,79.29,167.79z"/>
				</g>
			</g>
		</g>
	</g>
	<g>
		<path class="st0" d="M167.44,35.49V3.9h11.32c2.43,0,4.46,0.45,6.09,1.36c1.62,0.9,2.84,2.13,3.65,3.67s1.21,3.29,1.21,5.24
			c0,1.95-0.41,3.7-1.22,5.25c-0.81,1.55-2.03,2.77-3.66,3.67s-3.66,1.35-6.11,1.35h-7.74v-4.09h7.27c1.55,0,2.81-0.27,3.77-0.81
			c0.96-0.54,1.66-1.27,2.11-2.21c0.45-0.93,0.67-1.99,0.67-3.16c0-1.19-0.22-2.24-0.67-3.17s-1.15-1.65-2.12-2.17
			c-0.97-0.52-2.24-0.78-3.81-0.78h-5.94v27.46H167.44z"/>
		<path class="st0" d="M204.67,35.97c-2.22,0-4.16-0.51-5.82-1.53c-1.66-1.02-2.95-2.45-3.87-4.28c-0.92-1.84-1.38-3.97-1.38-6.4
			c0-2.46,0.46-4.61,1.38-6.46c0.92-1.84,2.21-3.28,3.87-4.29c1.66-1.02,3.6-1.53,5.82-1.53c2.23,0,4.18,0.51,5.84,1.53
			c1.66,1.02,2.95,2.45,3.87,4.29c0.92,1.84,1.38,4,1.38,6.46c0,2.43-0.46,4.57-1.38,6.4c-0.92,1.84-2.21,3.27-3.87,4.28
			C208.85,35.47,206.9,35.97,204.67,35.97z M204.67,32.03c1.44,0,2.63-0.38,3.57-1.13c0.94-0.76,1.64-1.76,2.1-3.01
			c0.46-1.25,0.69-2.63,0.69-4.12c0-1.51-0.23-2.9-0.69-4.17c-0.46-1.26-1.16-2.28-2.1-3.03c-0.94-0.76-2.13-1.13-3.57-1.13
			c-1.43,0-2.61,0.38-3.54,1.13c-0.93,0.76-1.63,1.76-2.09,3.02c-0.46,1.26-0.69,2.65-0.69,4.18c0,1.5,0.23,2.87,0.69,4.12
			c0.46,1.25,1.16,2.25,2.09,3.01C202.06,31.65,203.24,32.03,204.67,32.03z"/>
		<path class="st0" d="M225.34,35.49l-7.12-23.7h4.92l2.61,9.82c0.38,1.47,0.79,3.11,1.23,4.91c0.44,1.8,0.86,3.83,1.27,6.1h-0.68
			c0.41-2.18,0.83-4.17,1.27-5.98c0.44-1.81,0.85-3.48,1.25-5.03l2.61-9.82h4.66l2.57,9.82c0.4,1.5,0.81,3.15,1.24,4.96
			c0.43,1.81,0.85,3.82,1.26,6.04h-0.7c0.42-2.19,0.85-4.19,1.27-6s0.83-3.48,1.23-5l2.61-9.82h4.96l-7.15,23.7h-4.69l-2.93-10.2
			c-0.3-1.03-0.59-2.11-0.87-3.23s-0.56-2.27-0.83-3.45s-0.54-2.34-0.83-3.5h0.95c-0.27,1.15-0.54,2.31-0.82,3.49
			c-0.28,1.18-0.55,2.34-0.84,3.48s-0.57,2.21-0.87,3.21l-2.93,10.2H225.34z"/>
		<path class="st0" d="M265.58,35.97c-2.33,0-4.35-0.5-6.04-1.5s-3-2.42-3.91-4.24c-0.91-1.82-1.37-3.96-1.37-6.42
			c0-2.43,0.45-4.57,1.35-6.42c0.9-1.85,2.17-3.3,3.81-4.34c1.64-1.04,3.56-1.56,5.77-1.56c1.36,0,2.66,0.22,3.92,0.67
			s2.39,1.14,3.39,2.09c1,0.95,1.8,2.17,2.39,3.68c0.59,1.51,0.88,3.33,0.88,5.48v1.65h-18.89v-3.48h16.5l-2.18,1.15
			c0-1.46-0.23-2.74-0.68-3.85c-0.45-1.11-1.12-1.97-2-2.6c-0.88-0.62-1.99-0.93-3.32-0.93c-1.31,0-2.44,0.32-3.37,0.95
			c-0.93,0.64-1.64,1.47-2.13,2.51s-0.73,2.17-0.73,3.4v2.37c0,1.63,0.28,3,0.84,4.12c0.56,1.12,1.34,1.97,2.34,2.54
			c1,0.57,2.17,0.86,3.5,0.86c0.88,0,1.67-0.12,2.37-0.37s1.32-0.62,1.83-1.12c0.52-0.5,0.91-1.12,1.18-1.85l4.39,1.04
			c-0.38,1.22-1.02,2.29-1.92,3.22c-0.9,0.93-2.01,1.66-3.35,2.17C268.79,35.72,267.28,35.97,265.58,35.97z"/>
		<path class="st0" d="M280.87,35.49v-23.7h4.52v3.82h0.25c0.44-1.3,1.2-2.32,2.29-3.05c1.09-0.73,2.33-1.1,3.71-1.1
			c0.3,0,0.64,0.01,1.02,0.03c0.38,0.02,0.7,0.05,0.95,0.1v4.45c-0.17-0.06-0.49-0.11-0.98-0.17c-0.48-0.06-0.97-0.08-1.46-0.08
			c-1.07,0-2.04,0.23-2.9,0.68c-0.86,0.45-1.53,1.08-2.01,1.88c-0.48,0.8-0.72,1.72-0.72,2.77v14.4H280.87z"/>
		<path class="st0" d="M307.16,35.97c-2.33,0-4.35-0.5-6.04-1.5c-1.7-1-3-2.42-3.91-4.24c-0.91-1.82-1.37-3.96-1.37-6.42
			c0-2.43,0.45-4.57,1.35-6.42c0.9-1.85,2.17-3.3,3.81-4.34c1.64-1.04,3.56-1.56,5.77-1.56c1.36,0,2.66,0.22,3.92,0.67
			s2.39,1.14,3.39,2.09c1,0.95,1.8,2.17,2.38,3.68c0.59,1.51,0.88,3.33,0.88,5.48v1.65h-18.89v-3.48h16.5l-2.18,1.15
			c0-1.46-0.23-2.74-0.68-3.85c-0.45-1.11-1.12-1.97-2-2.6c-0.88-0.62-1.99-0.93-3.32-0.93c-1.32,0-2.44,0.32-3.37,0.95
			c-0.93,0.64-1.64,1.47-2.13,2.51c-0.49,1.04-0.73,2.17-0.73,3.4v2.37c0,1.63,0.28,3,0.84,4.12c0.56,1.12,1.34,1.97,2.34,2.54
			c1,0.57,2.17,0.86,3.5,0.86c0.88,0,1.67-0.12,2.37-0.37s1.32-0.62,1.83-1.12c0.52-0.5,0.91-1.12,1.18-1.85l4.39,1.04
			c-0.38,1.22-1.02,2.29-1.92,3.22c-0.9,0.93-2.02,1.66-3.35,2.17S308.86,35.97,307.16,35.97z"/>
		<path class="st0" d="M331.27,35.95c-1.92,0-3.63-0.49-5.13-1.47s-2.67-2.39-3.52-4.22c-0.85-1.83-1.27-4.02-1.27-6.56
			c0-2.57,0.43-4.77,1.29-6.59c0.86-1.82,2.04-3.21,3.54-4.18c1.5-0.96,3.19-1.44,5.09-1.44c1.47,0,2.65,0.24,3.55,0.73
			c0.9,0.49,1.6,1.06,2.11,1.71s0.9,1.22,1.17,1.72h0.25V3.9h4.66v31.59h-4.54v-3.71h-0.38c-0.27,0.51-0.66,1.09-1.19,1.74
			c-0.52,0.65-1.24,1.22-2.14,1.71C333.86,35.71,332.69,35.95,331.27,35.95z M332.28,31.99c1.33,0,2.45-0.35,3.36-1.06
			c0.91-0.71,1.6-1.69,2.08-2.94s0.71-2.7,0.71-4.34c0-1.65-0.23-3.09-0.7-4.31s-1.16-2.18-2.07-2.86
			c-0.91-0.69-2.04-1.03-3.38-1.03c-1.37,0-2.51,0.36-3.42,1.08s-1.6,1.7-2.06,2.94c-0.46,1.24-0.69,2.63-0.69,4.19
			c0,1.57,0.23,2.98,0.7,4.24c0.47,1.26,1.16,2.25,2.08,2.99C329.81,31.62,330.94,31.99,332.28,31.99z"/>
		<path class="st0" d="M372.63,35.95c-1.43,0-2.6-0.24-3.51-0.73c-0.91-0.49-1.63-1.06-2.14-1.71c-0.52-0.65-0.92-1.23-1.2-1.74
			h-0.38v3.71h-4.54V3.9h4.67v11.75h0.25c0.28-0.49,0.67-1.07,1.18-1.72s1.2-1.22,2.1-1.71c0.9-0.49,2.09-0.73,3.57-0.73
			c1.89,0,3.59,0.48,5.08,1.44c1.49,0.96,2.67,2.35,3.53,4.18c0.86,1.82,1.29,4.02,1.29,6.59c0,2.54-0.42,4.73-1.27,6.56
			c-0.85,1.83-2.02,3.24-3.51,4.22S374.55,35.95,372.63,35.95z M371.59,31.99c1.36,0,2.5-0.37,3.41-1.1
			c0.92-0.74,1.61-1.73,2.07-2.99c0.46-1.26,0.69-2.67,0.69-4.24c0-1.55-0.23-2.95-0.69-4.19c-0.46-1.24-1.15-2.22-2.06-2.94
			c-0.91-0.72-2.05-1.08-3.42-1.08c-1.33,0-2.45,0.34-3.37,1.03s-1.61,1.64-2.08,2.86c-0.47,1.22-0.7,2.66-0.7,4.31
			c0,1.64,0.24,3.08,0.71,4.34s1.17,2.23,2.09,2.94C369.16,31.64,370.28,31.99,371.59,31.99z"/>
		<path class="st0" d="M386.54,44.01l1.14-3.79l0.53,0.13c0.81,0.21,1.53,0.27,2.17,0.17c0.64-0.1,1.2-0.4,1.67-0.9
			c0.47-0.5,0.85-1.26,1.13-2.28l0.51-1.74l-9.01-23.81h5.05l4.69,13.46c0.52,1.5,0.96,2.99,1.3,4.47c0.35,1.48,0.72,2.96,1.13,4.43
			h-1.44c0.41-1.47,0.8-2.95,1.18-4.44c0.37-1.49,0.82-2.98,1.35-4.46l4.77-13.46h5l-10.3,26.99c-0.48,1.27-1.07,2.33-1.77,3.18
			c-0.7,0.85-1.53,1.49-2.49,1.92c-0.96,0.43-2.08,0.65-3.35,0.65c-0.74,0-1.39-0.05-1.97-0.16
			C387.25,44.25,386.82,44.14,386.54,44.01z"/>
	</g>
</g>
</svg>
